<svg width="7" height="7" viewBox="0 0 7 7" fill="none" xmlns="http://www.w3.org/2000/svg">
<path fill-rule="evenodd" clip-rule="evenodd" d="M4.89956 0.98652C5.93332 1.96744 5.9973 3.59339 5.04382 4.6525L6.22955 5.8343C6.28178 5.88838 6.28103 5.97433 6.22787 6.0275C6.17471 6.08066 6.08875 6.0814 6.03467 6.02917L4.84894 4.84738C3.78983 5.80085 2.16388 5.73687 1.18296 4.70312C0.202046 3.66937 0.223378 2.0423 1.23106 1.03462C2.23874 0.0269366 3.86581 0.00560462 4.89956 0.98652ZM0.757269 2.9039C0.757269 4.19785 1.80623 5.24681 3.10018 5.24681C4.3935 5.24529 5.44157 4.19722 5.44309 2.9039C5.44309 1.60995 4.39413 0.560991 3.10018 0.560991C1.80623 0.560991 0.757269 1.60995 0.757269 2.9039Z" fill="#333333"/>
</svg>
