<svg width="42" height="12" viewBox="0 0 42 12" fill="none" xmlns="http://www.w3.org/2000/svg">
<path d="M16.0873 7.45904L19.3687 3.53029H16.2115V2.25322H21.0448V3.34405L17.9231 7.2728H21.0803V8.54987H16.0873V7.45904ZM23.191 8.63855C22.9604 8.63855 22.7446 8.60308 22.5436 8.53213C22.3485 8.45527 22.18 8.3518 22.0381 8.22173C21.8962 8.08575 21.7838 7.92907 21.7011 7.7517C21.6183 7.56842 21.5769 7.37035 21.5769 7.15751C21.5769 6.92693 21.6242 6.71704 21.7188 6.52785C21.8193 6.33865 21.9583 6.17606 22.1356 6.04008C22.313 5.90409 22.5229 5.79767 22.7653 5.72081C23.0077 5.64395 23.2767 5.60552 23.5723 5.60552C23.7674 5.60552 23.9566 5.62326 24.1399 5.65873C24.3232 5.68829 24.4828 5.73559 24.6188 5.80063V5.58778C24.6188 5.04976 24.3084 4.78075 23.6876 4.78075C23.4334 4.78075 23.191 4.82509 22.9604 4.91378C22.7298 4.99655 22.4874 5.12366 22.2332 5.29512L21.8164 4.40827C22.1238 4.20725 22.4431 4.05649 22.7742 3.95598C23.1053 3.85547 23.457 3.80521 23.8295 3.80521C24.5331 3.80521 25.077 3.97076 25.4613 4.30185C25.8456 4.63294 26.0378 5.11775 26.0378 5.75629V6.95353C26.0378 7.09543 26.0585 7.19594 26.0999 7.25506C26.1472 7.30827 26.227 7.34079 26.3393 7.35262V8.54987C26.2151 8.57943 26.1028 8.59716 26.0023 8.60308C25.9018 8.6149 25.8101 8.62081 25.7274 8.62081C25.4613 8.62081 25.2603 8.57056 25.1243 8.47005C24.9883 8.36363 24.9026 8.21582 24.8671 8.02662L24.8405 7.81378C24.6336 8.07983 24.3853 8.28381 24.0956 8.42571C23.8118 8.5676 23.5102 8.63855 23.191 8.63855ZM23.6078 7.61867C23.7615 7.61867 23.9093 7.59207 24.0512 7.53886C24.199 7.48564 24.3202 7.4147 24.4148 7.32601C24.5508 7.21959 24.6188 7.10725 24.6188 6.98901V6.54558C24.4947 6.49828 24.3587 6.46281 24.2109 6.43916C24.069 6.4096 23.9359 6.39482 23.8118 6.39482C23.5516 6.39482 23.3358 6.45394 23.1644 6.57219C22.9988 6.69043 22.9161 6.84416 22.9161 7.03335C22.9161 7.20481 22.9811 7.3467 23.1112 7.45904C23.2412 7.56546 23.4068 7.61867 23.6078 7.61867ZM30.0192 5.10888C29.6763 5.1148 29.3659 5.17096 29.088 5.27739C28.8101 5.38381 28.6091 5.54344 28.4849 5.75629V8.54987H27.066V3.8939H28.3696V4.83396C28.5293 4.52061 28.7332 4.27524 28.9816 4.09787C29.2358 3.9205 29.5048 3.82886 29.7886 3.82295C29.8536 3.82295 29.9009 3.82295 29.9305 3.82295C29.9601 3.82295 29.9896 3.82591 30.0192 3.83182V5.10888ZM33.57 5.10888C33.2271 5.1148 32.9167 5.17096 32.6389 5.27739C32.361 5.38381 32.16 5.54344 32.0358 5.75629V8.54987H30.6168V3.8939H31.9205V4.83396C32.0801 4.52061 32.2841 4.27524 32.5324 4.09787C32.7867 3.9205 33.0557 3.82886 33.3395 3.82295C33.4045 3.82295 33.4518 3.82295 33.4814 3.82295C33.5109 3.82295 33.5405 3.82591 33.57 3.83182V5.10888ZM34.1677 8.54987V3.8939H35.5867V8.54987H34.1677ZM34.1677 3.36179V2.07585H35.5867V3.36179H34.1677ZM41.0455 8.54987H39.6265V5.93366C39.6265 5.62621 39.5674 5.4045 39.4492 5.26852C39.3368 5.12662 39.1861 5.05567 38.9969 5.05567C38.8964 5.05567 38.7959 5.07637 38.6954 5.11775C38.5948 5.15914 38.4973 5.21826 38.4027 5.29512C38.3081 5.36607 38.2224 5.4518 38.1455 5.55231C38.0746 5.65282 38.0184 5.7622 37.977 5.88044V8.54987H36.558V3.8939H37.8351V4.67433C38.0066 4.39645 38.249 4.1836 38.5623 4.03579C38.8757 3.88207 39.2363 3.80521 39.6443 3.80521C39.9458 3.80521 40.1882 3.86138 40.3715 3.97371C40.5548 4.08014 40.6967 4.22203 40.7972 4.3994C40.8977 4.57086 40.9627 4.76006 40.9923 4.96699C41.0278 5.17392 41.0455 5.37494 41.0455 5.57005V8.54987Z" fill="#333333"/>
<path d="M1.60621 10.3637C0.606797 9.37812 0.137932 7.87917 0.419723 6.50156C0.69848 4.95441 1.90014 3.60579 3.41763 3.18074C4.16053 3.93443 4.91287 4.67801 5.65914 5.42765C5.81285 5.57596 5.95374 5.73742 6.11958 5.87259C5.59072 5.87798 5.06084 5.85843 4.53265 5.87899C3.8029 5.92517 3.18471 6.61347 3.2255 7.34525C3.21876 8.08377 3.8811 8.75117 4.61996 8.74679C6.0734 8.75016 7.52651 8.74645 8.97929 8.74914C9.93421 9.70508 10.8874 10.663 11.8474 11.6142C11.6991 11.6426 11.5484 11.6348 11.3988 11.6335C9.1576 11.6338 6.91709 11.6335 4.67658 11.6338C3.54032 11.6368 2.40507 11.1757 1.60621 10.3637Z" fill="#7C4EE4"/>
<path d="M3.15073 2.92598C2.20592 1.98758 1.2756 1.03367 0.319336 0.106392C2.55613 0.115155 4.7926 0.107739 7.0294 0.110436C7.40489 0.115492 7.7841 0.0892016 8.15521 0.159649C9.10642 0.290769 10.0074 0.756262 10.6657 1.45467C11.3975 2.21342 11.8256 3.25092 11.8589 4.30325C11.8839 5.17054 11.6385 6.04456 11.169 6.77398C10.6165 7.62238 9.7627 8.29315 8.78048 8.56146C8.04701 7.8162 7.30209 7.08139 6.5639 6.34017C6.41525 6.20231 6.29054 6.03714 6.11998 5.92321C6.14897 5.89928 6.18031 5.87906 6.2147 5.86288C6.68356 5.87265 7.15344 5.8713 7.62264 5.86524C8.35071 5.84501 8.9898 5.17964 8.9753 4.45055C8.99654 3.85832 8.59576 3.28935 8.0433 3.08609C7.83263 2.99508 7.60005 2.99373 7.37455 2.99576C6.01346 2.99711 4.65271 2.99542 3.29196 2.99677C3.23499 2.99711 3.1878 2.97351 3.15073 2.92598Z" fill="#7C4EE4"/>
</svg>
